<svg xmlns="http://www.w3.org/2000/svg" viewBox="0 0 182.6 100" fill="#ececee" xmlns:c2pa="http://c2pa.org/manifest"><path fill-opacity=".12" fill-rule="evenodd" d="M0 100L42.1 0L59.6 0L70 100L50.4 100L49.2 79L27.5 79L19.6 100ZM35.4 60L46.2 29L47.3 60ZM72.8 100L114.9 0L132.4 0L142.8 100L123.2 100L122 79L100.3 79L92.4 100ZM108.2 60L119 29L120.1 60Z"></path><path fill-opacity=".3" fill-rule="evenodd" d="M12 100L54.1 0L71.6 0L82 100L62.4 100L61.2 79L39.5 79L31.6 100ZM47.4 60L58.2 29L59.3 60ZM84.8 100L126.9 0L144.4 0L154.8 100L135.2 100L134 79L112.3 79L104.4 100ZM120.2 60L131 29L132.1 60Z"></path><path fill-rule="evenodd" d="M24 100L66.1 0L83.6 0L94 100L74.4 100L73.2 79L51.5 79L43.6 100ZM59.4 60L70.2 29L71.3 60ZM96.8 100L138.9 0L156.4 0L166.8 100L147.2 100L146 79L124.3 79L116.4 100ZM132.2 60L143 29L144.1 60Z"></path></svg>